<?xml version="1.0" encoding="UTF-8" standalone="no"?>
<!-- Created with Inkscape (http://www.inkscape.org/) -->

<svg
   version="1.1"
   id="svg2"
   xml:space="preserve"
   width="491.33334"
   height="383.51999"
   viewBox="0 0 491.33334 383.51999"
   sodipodi:docname="Logo.eps"
   xmlns:inkscape="http://www.inkscape.org/namespaces/inkscape"
   xmlns:sodipodi="http://sodipodi.sourceforge.net/DTD/sodipodi-0.dtd"
   xmlns="http://www.w3.org/2000/svg"
   xmlns:svg="http://www.w3.org/2000/svg"><defs
     id="defs6" /><sodipodi:namedview
     id="namedview4"
     pagecolor="#ffffff"
     bordercolor="#666666"
     borderopacity="1.0"
     inkscape:pageshadow="2"
     inkscape:pageopacity="0.0"
     inkscape:pagecheckerboard="0" /><g
     id="g8"
     inkscape:groupmode="layer"
     inkscape:label="ink_ext_XXXXXX"
     transform="matrix(1.3333333,0,0,-1.3333333,0,383.52)"><g
       id="g10"
       transform="scale(0.1)"><path
         d="M 728.555,622.082 V 462.98 C 643.34,428.91 548.23,406.16 441.699,406.16 240.039,406.16 0,489.941 0,891.879 0,1293.81 240.039,1377.6 441.699,1377.6 c 106.531,0 201.641,-22.74 286.856,-56.83 v -159.04 c -79.473,36.92 -169.004,62.51 -271.219,62.51 -149.145,0 -286.867,-39.75 -286.867,-332.361 0,-292.547 137.722,-332.309 286.867,-332.309 102.215,0 191.746,25.602 271.219,62.512"
         style="fill:#24201f;fill-opacity:1;fill-rule:nonzero;stroke:none"
         id="path12" /><path
         d="M 1674.36,1364.81 V 1211.45 H 1232.71 V 971.398 h 382.03 V 810.941 h -382.03 v -393.41 h -170.42 v 947.279 h 612.07"
         style="fill:#24201f;fill-opacity:1;fill-rule:nonzero;stroke:none"
         id="path14" /><path
         d="m 2367.41,907.52 c 97.96,0 184.59,22.71 184.59,149.09 0,127.88 -86.63,149.15 -184.59,149.15 H 2178.52 V 907.52 Z m 396.2,-489.989 H 2557.7 L 2331.92,751.32 h -153.4 V 417.531 H 2008.1 v 947.279 h 363.53 c 218.72,0 350.85,-106.49 350.85,-303.88 0,-180.371 -115.02,-252.84 -207.39,-281.231 l 248.52,-362.168"
         style="fill:#24201f;fill-opacity:1;fill-rule:nonzero;stroke:none"
         id="path16" /><path
         d="M 3682.45,579.43 V 417.531 h -626.29 v 947.279 h 170.42 V 579.43 h 455.87"
         style="fill:#f14c1c;fill-opacity:1;fill-rule:nonzero;stroke:none"
         id="path18" /><path
         d="m 1078.18,124.27 h 67.89 v -15.489 h -67.89 V 57.7617 h 77.14 V 42.6719 h -93.03 V 190.191 h 93.03 v -15.089 h -77.14 V 124.27"
         style="fill:#100f0d;fill-opacity:1;fill-rule:nonzero;stroke:none"
         id="path20" /><path
         d="M 1282.23,114.57 V 42.6719 h -15.95 V 114.57 c 0,10.371 -3.05,24.532 -29.61,24.532 -11.27,0 -21.43,-2.231 -28.95,-4.422 V 42.6719 h -15.93 V 144.172 c 5.32,2.648 23.66,10.82 46.66,10.82 27.83,0 43.78,-14.82 43.78,-40.422"
         style="fill:#100f0d;fill-opacity:1;fill-rule:nonzero;stroke:none"
         id="path22" /><path
         d="m 1395.16,121.879 c 0,12.351 -9.29,18.543 -27.83,18.543 -13.31,0 -30.97,-4.41 -30.97,-42.0001 0,-34.2813 16.6,-38.8906 32.96,-38.8906 9.03,0 17.66,1.7187 25.84,5.0781 z m 15.89,-0.707 V 38.0508 C 1411.05,20.5703 1402.68,0 1363.12,0 c -12.85,0 -23.46,2.03906 -31.39,4.03125 V 19.0508 c 7.06,-2.0313 17.23,-3.961 29.61,-3.961 29.86,0 33.82,11.4805 33.82,22.5508 v 11.0196 c -8.18,-2.6407 -17.01,-3.9688 -25.84,-3.9688 -22.35,0 -48.86,9.3008 -48.86,53.7305 0,49.0581 29.35,56.5701 46.87,56.5701 40.63,0 43.72,-25.844 43.72,-33.82"
         style="fill:#100f0d;fill-opacity:1;fill-rule:nonzero;stroke:none"
         id="path24" /><path
         d="m 1526.88,102.59 c 0,5.332 -1.72,37.371 -32.24,37.371 -21.68,0 -30.72,-10.16 -32.3,-37.371 z m 16.36,-6.3986 c 0,-4.1719 -0.41,-7.7226 -0.41,-7.7226 h -80.49 c 1.99,-22.1368 13.05,-31.6368 35.8,-31.6368 16.16,0 28.54,2.6993 37.84,8.1797 V 48.6602 c -10.62,-5.0782 -23.67,-7.7188 -39.36,-7.7188 -23.01,0 -50.43,9.4883 -50.43,55.5078 0,11.7228 -1.72,58.5428 48.45,58.5428 50.17,0 48.6,-54.594 48.6,-58.8006"
         style="fill:#100f0d;fill-opacity:1;fill-rule:nonzero;stroke:none"
         id="path26" /><path
         d="M 1669.69,114.57 V 42.6719 h -15.9 V 114.57 c 0,10.371 -3.1,24.532 -29.66,24.532 -11.27,0 -21.42,-2.231 -28.94,-4.422 V 42.6719 H 1579.3 V 144.172 c 5.27,2.648 23.61,10.82 46.61,10.82 27.88,0 43.78,-14.82 43.78,-40.422"
         style="fill:#100f0d;fill-opacity:1;fill-rule:nonzero;stroke:none"
         id="path28" /><path
         d="M 1803.44,108.172 V 42.6719 h -15.94 v 65.5001 c 0,20.976 -9.09,30.93 -28.29,30.93 -12.84,0 -24.12,-3.563 -31.64,-6.653 V 42.6719 h -15.94 V 195 h 15.94 v -47.059 c 8.44,3.559 20.12,7.051 33.42,7.051 26.96,0 42.45,-17.012 42.45,-46.82"
         style="fill:#100f0d;fill-opacity:1;fill-rule:nonzero;stroke:none"
         id="path30" /><path
         d="m 1913.03,97.1016 c 0,0 -7.27,1.3203 -19.66,1.3203 -13.24,0 -40.01,-1.5235 -40.01,-21.8828 0,-17.4688 16.55,-20.8203 30.26,-20.8203 13.71,0 29.41,3.3515 29.41,20.1601 0,17 0,21.2227 0,21.2227 z m 15.94,11.9374 V 75.8789 c 0,-30.5195 -30.97,-34.9375 -45.35,-34.9375 -14.37,0 -46.16,4.418 -46.16,35.5977 0,36.4609 47.48,36.2109 57.64,36.2109 10.01,0 17.72,-1.078 17.72,-1.078 0,20.777 -12.39,27.43 -32.29,27.43 -15.89,0 -28.09,-3.75 -32.3,-5.34 v 15.488 c 8.23,2.891 19.5,5.742 33.22,5.742 30.91,0 47.52,-15.89 47.52,-45.953"
         style="fill:#100f0d;fill-opacity:1;fill-rule:nonzero;stroke:none"
         id="path32" /><path
         d="M 1983.11,133.762 V 42.6719 h -15.95 V 144.172 c 5.74,2.437 27.01,10.629 53.52,10.629 v -15.242 c -15.28,-0.457 -28.54,-3.36 -37.57,-5.797"
         style="fill:#100f0d;fill-opacity:1;fill-rule:nonzero;stroke:none"
         id="path34" /><path
         d="m 2068.88,153.012 h -15.95 V 42.6719 h 15.95 z m 0.86,19.648 h -17.67 v 17.531 h 17.67 V 172.66"
         style="fill:#100f0d;fill-opacity:1;fill-rule:nonzero;stroke:none"
         id="path36" /><path
         d="m 2180.69,97.1016 c 0,0 -7.25,1.3203 -19.65,1.3203 -13.25,0 -40.01,-1.5235 -40.01,-21.8828 0,-17.4688 16.55,-20.8203 30.26,-20.8203 13.71,0 29.4,3.3515 29.4,20.1601 0,17 0,21.2227 0,21.2227 z m 15.9,11.9374 V 75.8789 c 0,-30.5195 -30.93,-34.9375 -45.3,-34.9375 -14.37,0 -46.2,4.418 -46.2,35.5977 0,36.4609 47.52,36.2109 57.73,36.2109 9.95,0 17.67,-1.078 17.67,-1.078 0,20.777 -12.39,27.43 -32.3,27.43 -15.89,0 -28.02,-3.75 -32.24,-5.34 v 15.488 c 8.17,2.891 19.45,5.742 33.16,5.742 30.93,0 47.48,-15.89 47.48,-45.953"
         style="fill:#100f0d;fill-opacity:1;fill-rule:nonzero;stroke:none"
         id="path38" /><path
         d="m 2397.78,102.59 c 0,5.332 -1.77,37.371 -32.29,37.371 -21.69,0 -30.72,-10.16 -32.3,-37.371 z m 16.35,-6.3986 c 0,-4.1719 -0.4,-7.7226 -0.4,-7.7226 h -80.54 c 2.02,-22.1368 13.05,-31.6368 35.85,-31.6368 16.16,0 28.49,2.6993 37.84,8.1797 V 48.6602 c -10.67,-5.0782 -23.67,-7.7188 -39.41,-7.7188 -22.96,0 -50.38,9.4883 -50.38,55.5078 0,11.7228 -1.78,58.5428 48.4,58.5428 50.17,0 48.64,-54.594 48.64,-58.8006"
         style="fill:#100f0d;fill-opacity:1;fill-rule:nonzero;stroke:none"
         id="path40" /><path
         d="m 2601.77,55.9688 c 15.09,0 29.4,2.8515 43.11,8.6406 V 49.3711 c -14.16,-5.5391 -29.4,-8.4297 -44.89,-8.4297 -45.29,0 -68.3,25.3906 -68.3,75.6176 0,50.16 23.01,75.601 68.3,75.601 15.69,0 30.73,-2.89 44.89,-8.621 V 168.25 c -13.71,5.789 -28.02,8.891 -43.11,8.891 -37.38,0 -54.13,-18.789 -54.13,-60.582 0,-42.0082 16.75,-60.5902 54.13,-60.5902"
         style="fill:#100f0d;fill-opacity:1;fill-rule:nonzero;stroke:none"
         id="path42" /><path
         d="m 2762.09,97.9609 c 0,29.6601 -10.92,42.4611 -36.05,42.4611 -25.04,0 -35.85,-12.801 -35.85,-42.4611 0,-29.6015 10.81,-42.4492 35.85,-42.4492 25.13,0 36.05,12.8477 36.05,42.4492 z m 15.84,0 c 0,-47.0625 -28.28,-57.0195 -51.89,-57.0195 -23.73,0 -51.8,9.957 -51.8,57.0195 0,47.1291 28.07,57.0311 51.8,57.0311 23.61,0 51.89,-9.902 51.89,-57.0311"
         style="fill:#100f0d;fill-opacity:1;fill-rule:nonzero;stroke:none"
         id="path44" /><path
         d="M 2902.6,114.57 V 42.6719 h -15.89 V 114.57 c 0,10.371 -3.1,24.532 -29.66,24.532 -11.27,0 -21.42,-2.231 -28.94,-4.422 V 42.6719 h -15.9 V 144.172 c 5.28,2.648 23.61,10.82 46.62,10.82 27.88,0 43.77,-14.82 43.77,-40.422"
         style="fill:#100f0d;fill-opacity:1;fill-rule:nonzero;stroke:none"
         id="path46" /><path
         d="m 3014.41,71.6602 c 0,-19.2383 -15.22,-30.7188 -40.42,-30.7188 -14.57,0 -25.44,3.9688 -33.36,8.4297 v 16.8086 c 9.7,-6.0508 21.19,-9.75 32.71,-9.75 11.47,0 25.19,2.6406 25.19,15.2305 0,29.6018 -59.21,12.5898 -59.21,51.2808 0,15.489 10.41,32.051 39.1,32.051 11.47,0 21.01,-3.301 28.28,-6.851 v -15.899 c -5.94,3.547 -15.03,7.52 -26.5,7.52 -11.28,0 -24.99,-2.891 -24.99,-16.821 0,-21.679 59.2,-7.972 59.2,-51.2808"
         style="fill:#100f0d;fill-opacity:1;fill-rule:nonzero;stroke:none"
         id="path48" /><path
         d="m 3073.48,71.25 c 0,-11.1211 4.22,-15.2812 15.9,-15.2812 5.33,0 9.28,1.0703 12.58,2.6523 V 43.582 c -4.21,-1.5312 -9.03,-2.6406 -14.57,-2.6406 -9.09,0 -29.85,2.8906 -29.85,31.168 V 138.43 h -19.25 v 14.582 h 19.25 v 31.179 h 15.94 v -31.179 h 28.48 V 138.43 h -28.48 V 71.25"
         style="fill:#100f0d;fill-opacity:1;fill-rule:nonzero;stroke:none"
         id="path50" /><path
         d="M 3150.57,133.762 V 42.6719 h -15.9 V 144.172 c 5.74,2.437 26.96,10.629 53.52,10.629 v -15.242 c -15.28,-0.457 -28.54,-3.36 -37.62,-5.797"
         style="fill:#100f0d;fill-opacity:1;fill-rule:nonzero;stroke:none"
         id="path52" /><path
         d="M 3310.83,153.012 V 89.1289 c 0,-30.7305 -16.81,-48.1875 -46.16,-48.1875 -29.4,0 -46.21,17.457 -46.21,48.1875 v 63.8831 h 15.9 V 88.2695 c 0,-22.3476 9.49,-32.5507 30.31,-32.5507 20.52,0 30.27,10.2031 30.27,32.5507 v 64.7425 h 15.89"
         style="fill:#100f0d;fill-opacity:1;fill-rule:nonzero;stroke:none"
         id="path54" /><path
         d="m 3362.32,97.9609 c 0,-29.3906 11.27,-41.7812 37.58,-41.7812 10.86,0 21.22,1.9805 30.98,6.1914 V 46.8789 c -7.97,-2.8281 -15.95,-4.8281 -24.33,-5.7383 l -13.71,-24.7304 h -16.8 l 17.72,24.5312 c -22.55,1.3203 -47.33,12.7891 -47.33,57.0195 0,47.1291 28.08,57.0311 51.74,57.0311 11.27,0 22.3,-2.183 32.71,-6.191 V 133.57 c -9.76,3.95 -20.12,6.192 -30.98,6.192 -26.31,0 -37.58,-12.602 -37.58,-41.8011"
         style="fill:#100f0d;fill-opacity:1;fill-rule:nonzero;stroke:none"
         id="path56" /><path
         d="m 3476.17,167.582 v 12.598 c 20.77,25.902 41.34,-21.828 62.37,4.011 v -12.132 c -21.03,-26.11 -41.6,21.632 -62.37,-4.477 z m 59.06,-70.4804 c 0,0 -7.36,1.3203 -19.7,1.3203 -13.3,0 -40.01,-1.5235 -40.01,-21.6836 0,-17.668 16.55,-21.0195 30.26,-21.0195 13.71,0 29.45,3.3515 29.45,20.1601 0,17 0,21.2227 0,21.2227 z m 15.89,12.1284 V 75.8789 c 0,-30.2695 -30.97,-34.9375 -45.34,-34.9375 -14.37,0 -46.21,4.418 -46.21,35.5977 0,36.4609 47.53,36.2109 57.48,36.2109 10.16,0 17.93,-1.078 17.93,-1.078 0,20.777 -12.39,27.43 -32.25,27.43 -15.94,0 -28.13,-3.75 -32.35,-5.133 v 15.281 c 8.23,3.109 19.5,5.742 33.16,5.742 30.98,0 47.58,-15.89 47.58,-45.762"
         style="fill:#100f0d;fill-opacity:1;fill-rule:nonzero;stroke:none"
         id="path58" /><path
         d="m 3669.14,97.9609 c 0,29.6601 -10.87,42.4611 -36.05,42.4611 -24.98,0 -35.8,-12.801 -35.8,-42.4611 0,-29.6015 10.82,-42.4492 35.8,-42.4492 25.18,0 36.05,12.8477 36.05,42.4492 z m 15.9,0 c 0,-47.0625 -28.29,-57.0195 -51.95,-57.0195 -23.62,0 -51.69,9.957 -51.69,57.0195 0,47.1291 28.07,57.0311 51.69,57.0311 23.66,0 51.95,-9.902 51.95,-57.0311"
         style="fill:#100f0d;fill-opacity:1;fill-rule:nonzero;stroke:none"
         id="path60" /><path
         d="m 3664.27,2789.97 c 0,0 -442.1,61.29 -623.44,86.43 v -402.03 l 623.54,119.68 -0.1,195.92"
         style="fill:#f14c1c;fill-opacity:1;fill-rule:evenodd;stroke:none"
         id="path62" /><path
         d="M 1058.22,2594.2 2963.28,2474.72 V 2876.4 L 1058.22,2788.7 V 2594.2"
         style="fill:#24201f;fill-opacity:1;fill-rule:evenodd;stroke:none"
         id="path64" /><path
         d="m 1058.08,2363.41 1905.2,-368.52 -0.05,402.18 -1905.15,156.41 v -190.07"
         style="fill:#24201f;fill-opacity:1;fill-rule:evenodd;stroke:none"
         id="path66" /><path
         d="m 3664.42,2363.25 c 0,0 -438.3,-258.93 -623.59,-368.41 l 0.05,402.23 623.49,156.31 0.05,-190.13"
         style="fill:#f14c1c;fill-opacity:1;fill-rule:evenodd;stroke:none"
         id="path68" /><path
         d="m 1058.17,2128.55 1905.47,-631.47 -0.2,402.75 -1905.27,424.83 v -196.11"
         style="fill:#24201f;fill-opacity:1;fill-rule:evenodd;stroke:none"
         id="path70" /><path
         d="m 3664.42,2129.56 -622.98,-632.53 -0.51,402.19 623.44,424.83 0.05,-194.49"
         style="fill:#f14c1c;fill-opacity:1;fill-rule:evenodd;stroke:none"
         id="path72" /></g></g></svg>
